<svg xmlns="http://www.w3.org/2000/svg" viewBox="0 0 72.35 52.02"><title>Asset 3</title><g id="Layer_2" data-name="Layer 2"><g id="Layer_1-2" data-name="Layer 1"><rect x="2" y="2" width="68.35" height="48.02" rx="9" ry="9" fill="#fff" stroke="#a1a1a1" stroke-miterlimit="10" stroke-width="4"/><line x1="8" y1="15" x2="64.73" y2="15" fill="none" stroke="#a1a1a1" stroke-miterlimit="10"/><line x1="56.53" y1="7.06" x2="61.58" y2="12.11" fill="none" stroke="#a1a1a1" stroke-miterlimit="10"/><line x1="61.58" y1="7.06" x2="56.53" y2="12.11" fill="none" stroke="#a1a1a1" stroke-miterlimit="10"/><path d="M27.8,32.53c-1.61,0-2-1.17-1.44-2.84.63-1.86,2.31-3.86,2-4s-2.36,1.15-3.48,3A25.16,25.16,0,0,0,23,32.28c-.08.17-.21.21-.33.08-.31-.35-.48-.88-.08-2A67.27,67.27,0,0,1,28.84,19.7c.17-.23.36-.21.46,0a3.1,3.1,0,0,1-.54,2.73c-.46.77-1.48,2.32-2.31,3.61a4.09,4.09,0,0,1,2.31-1.34,1.35,1.35,0,0,1,.75,2c-.42.85-1.34,2.25-1.79,3.25s-.38,2,.33,2,1.84-1.42,2.44-2.65a.18.18,0,0,1,.35,0,1.48,1.48,0,0,1-.19,1.19A3.55,3.55,0,0,1,27.8,32.53Z" fill="#fff"/><path d="M32.85,32c1.59.08,3-1.46,3.82-2.73.1-.15.25-.15.33,0a1.56,1.56,0,0,1-.33,1.19,4.87,4.87,0,0,1-3.77,2.07c-2.44,0-3.29-2.36-2-4.84s3.21-3.48,4.17-2.92a3.57,3.57,0,0,1,1.13,1,2.49,2.49,0,0,1-.61,2.61c-.94,1.15-2.23,1.65-3.57.56C31.37,30.71,31.84,31.92,32.85,32Zm1.59-4.42c.61-.81,1-1.81.77-2s-2,.83-2.9,2.65c-.06.12-.12.23-.15.33C33.1,29.11,33.89,28.29,34.45,27.56Z" fill="#fff"/><path d="M38.13,31.94c.92.08,2.27-1.31,3-2.79.13-.25.35-.27.42,0a1.77,1.77,0,0,1-.19,1.19,4.23,4.23,0,0,1-3.21,2.13c-1.33,0-2-1-1.59-3a20,20,0,0,1,4.86-8.86c.29-.31.56-.35.83-.1a2,2,0,0,1,.44,2.11,11.1,11.1,0,0,1-4.46,5.78C37.48,30.27,37.27,31.86,38.13,31.94Zm3.92-9.74c-.25-.15-1.67,2-3,4.44a10.27,10.27,0,0,0-.46.92C41.23,25.43,42.3,22.35,42.05,22.2Z" fill="#fff"/><path d="M42.55,31.94c.92.08,2.27-1.31,3-2.79.13-.25.35-.27.42,0a1.76,1.76,0,0,1-.19,1.19,4.23,4.23,0,0,1-3.21,2.13c-1.33,0-2-1-1.59-3a20,20,0,0,1,4.86-8.86c.29-.31.56-.35.83-.1a2,2,0,0,1,.44,2.11,11.1,11.1,0,0,1-4.46,5.78C41.9,30.27,41.69,31.86,42.55,31.94Zm3.92-9.74c-.25-.15-1.67,2-3,4.44a10.27,10.27,0,0,0-.46.92C45.65,25.43,46.72,22.35,46.47,22.2Z" fill="#fff"/><path d="M51.25,28.35c-.4,1.63-1.61,3.57-3,4.05a2.11,2.11,0,0,1-2.42-.85c-.85-1.11-.56-2.79.31-4.32.73-1.31,1.9-2.42,3.05-2.5a1.31,1.31,0,0,1,1.31.65c.44.6,1,.73.9,2.11,0,.15,0,.29,0,.44.12,0,.23,0,.38,0s.13.1.06.19A.79.79,0,0,1,51.25,28.35Zm-1.63-.48a2.39,2.39,0,0,1-.88-1.69A6.72,6.72,0,0,0,47.26,28c-.81,1.46-1.1,3.23-.6,3.65s1.71-.23,2.65-2A10.17,10.17,0,0,0,50,28.1,1.45,1.45,0,0,1,49.62,27.87Zm.65-1.71c-.1-.61-.48-.5-.58.06a1.58,1.58,0,0,0,.42,1.36A3.68,3.68,0,0,0,50.27,26.16Z" fill="#fff"/><path d="M26.91,35.81q.26-.37.46-.12a2.09,2.09,0,0,1,0,2.13c-.42.86-1.38,2.31-1.84,3.32s-.5,1.9.15,1.86,1.84-1.34,2.52-2.67c.1-.17.23-.19.31,0a1.73,1.73,0,0,1-.17,1.19,3.45,3.45,0,0,1-2.77,2.06A1.49,1.49,0,0,1,24,42a3.36,3.36,0,0,1-2.4,1.5c-1.79,0-2.15-2.44-.56-4.76s3.07-3.13,4-3.13A1.17,1.17,0,0,1,26.22,37C26.47,36.52,26.7,36.12,26.91,35.81Zm-1.54.79c-.61-.06-2,1.19-3.07,2.9s-1.27,3.34-.52,3.36,1.79-1.21,2.77-2.9C25.76,37.85,25.93,36.66,25.37,36.6Z" fill="#fff"/><path d="M32.06,44c-1.06,2.57-2.42,5.63-4,6.24a.86.86,0,0,1-1.11-.4,2.41,2.41,0,0,1-.38-2.38c.56-1.73,2.21-2.9,4.11-3.63.19-.42.36-.88.56-1.33a2.86,2.86,0,0,1-1.94,1c-1.77,0-2.11-2.4-.56-4.71s3.05-3.09,4-3.09a1.13,1.13,0,0,1,1.13,1.27l.63-1.06c.15-.27.35-.29.48-.12a2,2,0,0,1,0,2.11c-.58,1.15-1.79,3.48-2.59,5.34a9.58,9.58,0,0,0,3.44-2.88c.12-.15.29-.15.33,0a1.89,1.89,0,0,1-.38,1.11A7.13,7.13,0,0,1,32.06,44Zm-4.71,5.17c.25.36,1.77-1.63,3-4.55C27.87,46.09,27,48.72,27.35,49.18Zm5.72-12.53c-.6,0-2,1.19-3.05,2.86s-1.25,3.34-.48,3.36,1.73-1.19,2.71-2.88C33.46,37.89,33.63,36.7,33.08,36.66Z" fill="#fff"/><path d="M42.43,35.81q.26-.37.46-.12a2.09,2.09,0,0,1,0,2.13c-.42.86-1.38,2.31-1.84,3.32s-.5,1.9.15,1.86S43,41.67,43.7,40.35c.1-.17.23-.19.31,0a1.73,1.73,0,0,1-.17,1.19,3.45,3.45,0,0,1-2.77,2.06A1.49,1.49,0,0,1,39.49,42a3.36,3.36,0,0,1-2.4,1.5c-1.79,0-2.15-2.44-.56-4.76s3.07-3.13,4-3.13A1.17,1.17,0,0,1,41.74,37C42,36.52,42.22,36.12,42.43,35.81Zm-1.54.79c-.61-.06-2,1.19-3.07,2.9s-1.27,3.34-.52,3.36,1.79-1.21,2.77-2.9C41.28,37.85,41.45,36.66,40.89,36.6Z" fill="#fff"/><path d="M43.37,40.71A23.7,23.7,0,0,1,45.83,36c.17-.23.31-.29.46-.12a2,2,0,0,1,0,2.09c-.4.85-1.21,2.15-1.61,3.11-.46,1.11-.42,1.86.19,1.82.86,0,1.92-1.31,2.5-2.63.1-.17.23-.15.31,0a1.37,1.37,0,0,1-.13,1.19,3.44,3.44,0,0,1-2.86,2C43.19,43.52,42.83,42.29,43.37,40.71Zm4.28-5a.69.69,0,0,1-1.08-.29,1.19,1.19,0,0,1,.1-1.42c.31-.33.86-.1,1.11.42A1.16,1.16,0,0,1,47.65,35.7Z" fill="#fff"/><path d="M53.07,35.7a1.39,1.39,0,0,1,.75,2C53.41,38.58,52.47,40,52,41s-.38,2,.31,2,1.73-1.31,2.46-2.65c.1-.17.23-.17.33,0A1.41,1.41,0,0,1,55,41.52a3.59,3.59,0,0,1-2.84,2.06c-1.63,0-2-1.19-1.46-2.86.63-1.88,2.32-3.92,2-4.07-.19-.08-1.31.46-2.54,1.81a19.14,19.14,0,0,0-2.8,4.88c-.08.17-.19.25-.37.08-.38-.38-.5-1-.19-2a30.44,30.44,0,0,1,3.07-5.67c.13-.21.29-.19.4,0a2.28,2.28,0,0,1,.06,1.83C51.13,36.66,52.43,35.6,53.07,35.7Z" fill="#fff"/><path d="M26.8,31.53c-1.61,0-2-1.17-1.44-2.84.63-1.86,2.31-3.86,2-4s-2.36,1.15-3.48,3A25.16,25.16,0,0,0,22,31.28c-.08.17-.21.21-.33.08-.31-.35-.48-.88-.08-2A67.27,67.27,0,0,1,27.84,18.7c.17-.23.36-.21.46,0a3.1,3.1,0,0,1-.54,2.73c-.46.77-1.48,2.32-2.31,3.61a4.09,4.09,0,0,1,2.31-1.34,1.35,1.35,0,0,1,.75,2c-.42.85-1.34,2.25-1.79,3.25s-.38,2,.33,2,1.84-1.42,2.44-2.65a.18.18,0,0,1,.35,0,1.48,1.48,0,0,1-.19,1.19A3.55,3.55,0,0,1,26.8,31.53Z" fill="#a1a1a1"/><path d="M31.85,31c1.59.08,3-1.46,3.82-2.73.1-.15.25-.15.33,0a1.56,1.56,0,0,1-.33,1.19,4.87,4.87,0,0,1-3.77,2.07c-2.44,0-3.29-2.36-2-4.84s3.21-3.48,4.17-2.92a3.57,3.57,0,0,1,1.13,1,2.49,2.49,0,0,1-.61,2.61c-.94,1.15-2.23,1.65-3.57.56C30.37,29.71,30.84,30.92,31.85,31Zm1.59-4.42c.61-.81,1-1.81.77-2s-2,.83-2.9,2.65c-.06.12-.12.23-.15.33C32.1,28.11,32.89,27.29,33.45,26.56Z" fill="#a1a1a1"/><path d="M37.13,30.94c.92.08,2.27-1.31,3-2.79.13-.25.35-.27.42,0a1.77,1.77,0,0,1-.19,1.19,4.23,4.23,0,0,1-3.21,2.13c-1.33,0-2-1-1.59-3a20,20,0,0,1,4.86-8.86c.29-.31.56-.35.83-.1a2,2,0,0,1,.44,2.11,11.1,11.1,0,0,1-4.46,5.78C36.48,29.27,36.27,30.86,37.13,30.94Zm3.92-9.74c-.25-.15-1.67,2-3,4.44a10.27,10.27,0,0,0-.46.92C40.23,24.43,41.3,21.35,41.05,21.2Z" fill="#a1a1a1"/><path d="M41.55,30.94c.92.08,2.27-1.31,3-2.79.13-.25.35-.27.42,0a1.76,1.76,0,0,1-.19,1.19,4.23,4.23,0,0,1-3.21,2.13c-1.33,0-2-1-1.59-3a20,20,0,0,1,4.86-8.86c.29-.31.56-.35.83-.1a2,2,0,0,1,.44,2.11,11.1,11.1,0,0,1-4.46,5.78C40.9,29.27,40.69,30.86,41.55,30.94Zm3.92-9.74c-.25-.15-1.67,2-3,4.44a10.27,10.27,0,0,0-.46.92C44.65,24.43,45.72,21.35,45.47,21.2Z" fill="#a1a1a1"/><path d="M50.25,27.35c-.4,1.63-1.61,3.57-3,4.05a2.11,2.11,0,0,1-2.42-.85c-.85-1.11-.56-2.79.31-4.32.73-1.31,1.9-2.42,3.05-2.5a1.31,1.31,0,0,1,1.31.65c.44.6,1,.73.9,2.11,0,.15,0,.29,0,.44.12,0,.23,0,.38,0s.13.1.06.19A.79.79,0,0,1,50.25,27.35Zm-1.63-.48a2.39,2.39,0,0,1-.88-1.69A6.72,6.72,0,0,0,46.26,27c-.81,1.46-1.1,3.23-.6,3.65s1.71-.23,2.65-2A10.17,10.17,0,0,0,49,27.1,1.45,1.45,0,0,1,48.62,26.87Zm.65-1.71c-.1-.61-.48-.5-.58.06a1.58,1.58,0,0,0,.42,1.36A3.68,3.68,0,0,0,49.27,25.16Z" fill="#a1a1a1"/><path d="M25.91,34.81q.26-.37.46-.12a2.09,2.09,0,0,1,0,2.13c-.42.86-1.38,2.31-1.84,3.32s-.5,1.9.15,1.86,1.84-1.34,2.52-2.67c.1-.17.23-.19.31,0a1.73,1.73,0,0,1-.17,1.19,3.45,3.45,0,0,1-2.77,2.06A1.49,1.49,0,0,1,23,41a3.36,3.36,0,0,1-2.4,1.5c-1.79,0-2.15-2.44-.56-4.76s3.07-3.13,4-3.13A1.17,1.17,0,0,1,25.22,36C25.47,35.52,25.7,35.12,25.91,34.81Zm-1.54.79c-.61-.06-2,1.19-3.07,2.9s-1.27,3.34-.52,3.36,1.79-1.21,2.77-2.9C24.76,36.85,24.93,35.66,24.37,35.6Z" fill="#a1a1a1"/><path d="M31.06,43c-1.06,2.57-2.42,5.63-4,6.24a.86.86,0,0,1-1.11-.4,2.41,2.41,0,0,1-.38-2.38c.56-1.73,2.21-2.9,4.11-3.63.19-.42.36-.88.56-1.33a2.86,2.86,0,0,1-1.94,1c-1.77,0-2.11-2.4-.56-4.71s3.05-3.09,4-3.09a1.13,1.13,0,0,1,1.13,1.27l.63-1.06c.15-.27.35-.29.48-.12a2,2,0,0,1,0,2.11c-.58,1.15-1.79,3.48-2.59,5.34a9.58,9.58,0,0,0,3.44-2.88c.12-.15.29-.15.33,0a1.89,1.89,0,0,1-.38,1.11A7.13,7.13,0,0,1,31.06,43Zm-4.71,5.17c.25.36,1.77-1.63,3-4.55C26.87,45.09,26,47.72,26.35,48.18Zm5.72-12.53c-.6,0-2,1.19-3.05,2.86s-1.25,3.34-.48,3.36,1.73-1.19,2.71-2.88C32.46,36.89,32.63,35.7,32.08,35.66Z" fill="#a1a1a1"/><path d="M41.43,34.81q.26-.37.46-.12a2.09,2.09,0,0,1,0,2.13c-.42.86-1.38,2.31-1.84,3.32s-.5,1.9.15,1.86S42,40.67,42.7,39.35c.1-.17.23-.19.31,0a1.73,1.73,0,0,1-.17,1.19,3.45,3.45,0,0,1-2.77,2.06A1.49,1.49,0,0,1,38.49,41a3.36,3.36,0,0,1-2.4,1.5c-1.79,0-2.15-2.44-.56-4.76s3.07-3.13,4-3.13A1.17,1.17,0,0,1,40.74,36C41,35.52,41.22,35.12,41.43,34.81Zm-1.54.79c-.61-.06-2,1.19-3.07,2.9s-1.27,3.34-.52,3.36,1.79-1.21,2.77-2.9C40.28,36.85,40.45,35.66,39.89,35.6Z" fill="#a1a1a1"/><path d="M42.37,39.71A23.7,23.7,0,0,1,44.83,35c.17-.23.31-.29.46-.12a2,2,0,0,1,0,2.09c-.4.85-1.21,2.15-1.61,3.11-.46,1.11-.42,1.86.19,1.82.86,0,1.92-1.31,2.5-2.63.1-.17.23-.15.31,0a1.37,1.37,0,0,1-.13,1.19,3.44,3.44,0,0,1-2.86,2C42.19,42.52,41.83,41.29,42.37,39.71Zm4.28-5a.69.69,0,0,1-1.08-.29,1.19,1.19,0,0,1,.1-1.42c.31-.33.86-.1,1.11.42A1.16,1.16,0,0,1,46.65,34.7Z" fill="#a1a1a1"/><path d="M52.07,34.7a1.39,1.39,0,0,1,.75,2C52.41,37.58,51.47,39,51,40s-.38,2,.31,2,1.73-1.31,2.46-2.65c.1-.17.23-.17.33,0A1.41,1.41,0,0,1,54,40.52a3.59,3.59,0,0,1-2.84,2.06c-1.63,0-2-1.19-1.46-2.86.63-1.88,2.32-3.92,2-4.07-.19-.08-1.31.46-2.54,1.81a19.14,19.14,0,0,0-2.8,4.88c-.08.17-.19.25-.37.08-.38-.38-.5-1-.19-2a30.44,30.44,0,0,1,3.07-5.67c.13-.21.29-.19.4,0a2.28,2.28,0,0,1,.06,1.83C50.13,35.66,51.43,34.6,52.07,34.7Z" fill="#a1a1a1"/><path d="M11.49,9.43l1.45,2.16H11.82L11,10.22l-.86,1.37H9l1.45-2.16L9,7.3h1.12L11,8.64,11.8,7.3h1.12Z" fill="#a1a1a1"/><path d="M16.35,10.91h-1l-.84-1.72-.13,2.4h-1l.32-4.29h1l1.24,2.62L17.08,7.3h1l.32,4.29h-1l-.13-2.4Z" fill="#a1a1a1"/><path d="M23.22,9.44a2.47,2.47,0,0,1-.15.86,2.09,2.09,0,0,1-.43.71,2,2,0,0,1-.69.48,2.31,2.31,0,0,1-.93.18,2.33,2.33,0,0,1-.93-.18,2,2,0,0,1-.69-.48A2,2,0,0,1,19,10.3a2.62,2.62,0,0,1,0-1.72,2,2,0,0,1,.43-.71,2,2,0,0,1,.69-.48A2.32,2.32,0,0,1,21,7.22,2.3,2.3,0,0,1,22,7.4a2,2,0,0,1,.69.48,2.09,2.09,0,0,1,.43.71A2.47,2.47,0,0,1,23.22,9.44ZM21,10.83a1.11,1.11,0,0,0,.49-.1,1,1,0,0,0,.36-.29,1.23,1.23,0,0,0,.22-.44,2.23,2.23,0,0,0,0-1.11,1.23,1.23,0,0,0-.22-.44,1,1,0,0,0-.36-.29,1.22,1.22,0,0,0-1,0,1,1,0,0,0-.35.29,1.22,1.22,0,0,0-.22.44A2.23,2.23,0,0,0,20,10a1.23,1.23,0,0,0,.22.44,1,1,0,0,0,.35.29A1.1,1.1,0,0,0,21,10.83Z" fill="#a1a1a1"/><path d="M23.86,7.3h1.31a3.21,3.21,0,0,1,1,.16A2.47,2.47,0,0,1,27,7.9,2,2,0,0,1,27,11a2.46,2.46,0,0,1-.81.44,3.21,3.21,0,0,1-1,.16H23.86Zm1.37,3.45a1.8,1.8,0,0,0,.59-.09,1.32,1.32,0,0,0,.45-.26,1.13,1.13,0,0,0,.29-.41,1.52,1.52,0,0,0,0-1.1,1.13,1.13,0,0,0-.29-.41,1.33,1.33,0,0,0-.45-.26,1.8,1.8,0,0,0-.59-.09h-.32v2.61Z" fill="#a1a1a1"/><path d="M30.75,10.76H29.11l-.26.83H27.76l1.6-4.29h1.16l1.6,4.29H31Zm-1.37-.84h1.1l-.55-1.81Z" fill="#a1a1a1"/><path d="M33.66,7.3v3.45h1.58v.84H32.61V7.3Z" fill="#a1a1a1"/></g></g></svg>